<svg xmlns="http://www.w3.org/2000/svg" xmlns:xlink="http://www.w3.org/1999/xlink" width="180" zoomAndPan="magnify" viewBox="0 0 135 135.000003" height="180" preserveAspectRatio="xMidYMid meet" version="1.2"><defs><clipPath id="3741b5411b"><path d="M 0.496094 0 L 134.503906 0 L 134.503906 134.007812 L 0.496094 134.007812 Z M 0.496094 0 "/></clipPath><clipPath id="361adca4bf"><path d="M 59.535156 32.511719 L 74.917969 32.511719 L 74.917969 47.890625 L 59.535156 47.890625 Z M 59.535156 32.511719 "/></clipPath><clipPath id="69262c25c5"><path d="M 67.226562 32.511719 C 62.980469 32.511719 59.535156 35.957031 59.535156 40.203125 C 59.535156 44.449219 62.980469 47.890625 67.226562 47.890625 C 71.472656 47.890625 74.917969 44.449219 74.917969 40.203125 C 74.917969 35.957031 71.472656 32.511719 67.226562 32.511719 Z M 67.226562 32.511719 "/></clipPath><clipPath id="36e321f55e"><path d="M 75 63 L 94.410156 63 L 94.410156 81 L 75 81 Z M 75 63 "/></clipPath><clipPath id="8a962128e0"><path d="M 55 28.441406 L 80 28.441406 L 80 53 L 55 53 Z M 55 28.441406 "/></clipPath><clipPath id="6771fab8d6"><path d="M 49 53 L 86 53 L 86 105.796875 L 49 105.796875 Z M 49 53 "/></clipPath><clipPath id="9d15e9da88"><path d="M 40.71875 63 L 60 63 L 60 81 L 40.71875 81 Z M 40.71875 63 "/></clipPath></defs><g id="ba69220cb6"><g clip-rule="nonzero" clip-path="url(#3741b5411b)"><path style=" stroke:none;fill-rule:nonzero;fill:#ffb300;fill-opacity:1;" d="M 134.503906 67.003906 C 134.503906 68.101562 134.476562 69.195312 134.421875 70.292969 C 134.371094 71.386719 134.289062 72.480469 134.179688 73.570312 C 134.074219 74.664062 133.9375 75.75 133.777344 76.835938 C 133.617188 77.917969 133.429688 79 133.214844 80.074219 C 133.003906 81.152344 132.761719 82.21875 132.496094 83.285156 C 132.230469 84.347656 131.9375 85.40625 131.617188 86.453125 C 131.300781 87.503906 130.957031 88.542969 130.585938 89.578125 C 130.21875 90.609375 129.824219 91.632812 129.402344 92.644531 C 128.984375 93.65625 128.539062 94.660156 128.070312 95.652344 C 127.601562 96.644531 127.109375 97.621094 126.59375 98.589844 C 126.074219 99.554688 125.535156 100.511719 124.972656 101.449219 C 124.40625 102.390625 123.820312 103.316406 123.210938 104.230469 C 122.601562 105.140625 121.972656 106.035156 121.316406 106.917969 C 120.664062 107.796875 119.988281 108.664062 119.292969 109.511719 C 118.597656 110.359375 117.882812 111.1875 117.144531 112 C 116.410156 112.8125 115.652344 113.605469 114.878906 114.382812 C 114.101562 115.15625 113.308594 115.914062 112.496094 116.648438 C 111.683594 117.386719 110.855469 118.101562 110.007812 118.796875 C 109.160156 119.492188 108.292969 120.167969 107.414062 120.820312 C 106.535156 121.476562 105.636719 122.105469 104.726562 122.714844 C 103.8125 123.324219 102.886719 123.910156 101.945312 124.476562 C 101.007812 125.039062 100.050781 125.578125 99.085938 126.09375 C 98.117188 126.613281 97.140625 127.105469 96.148438 127.574219 C 95.15625 128.042969 94.152344 128.488281 93.140625 128.90625 C 92.128906 129.328125 91.105469 129.722656 90.074219 130.089844 C 89.039062 130.460938 88 130.804688 86.949219 131.121094 C 85.902344 131.441406 84.84375 131.734375 83.78125 132 C 82.71875 132.265625 81.648438 132.507812 80.570312 132.71875 C 79.496094 132.933594 78.417969 133.121094 77.332031 133.28125 C 76.246094 133.441406 75.160156 133.578125 74.066406 133.683594 C 72.976562 133.792969 71.882812 133.871094 70.789062 133.925781 C 69.691406 133.980469 68.597656 134.007812 67.5 134.007812 C 66.402344 134.007812 65.308594 133.980469 64.210938 133.925781 C 63.117188 133.871094 62.023438 133.792969 60.933594 133.683594 C 59.839844 133.578125 58.753906 133.441406 57.667969 133.28125 C 56.582031 133.121094 55.503906 132.933594 54.429688 132.71875 C 53.351562 132.507812 52.28125 132.265625 51.21875 132 C 50.15625 131.734375 49.097656 131.441406 48.050781 131.121094 C 47 130.804688 45.960938 130.460938 44.925781 130.089844 C 43.894531 129.722656 42.871094 129.328125 41.859375 128.90625 C 40.84375 128.488281 39.84375 128.042969 38.851562 127.574219 C 37.859375 127.105469 36.882812 126.613281 35.914062 126.09375 C 34.949219 125.578125 33.992188 125.039062 33.054688 124.476562 C 32.113281 123.910156 31.1875 123.324219 30.273438 122.714844 C 29.363281 122.105469 28.464844 121.476562 27.585938 120.820312 C 26.707031 120.167969 25.839844 119.492188 24.992188 118.796875 C 24.144531 118.101562 23.316406 117.386719 22.503906 116.648438 C 21.691406 115.914062 20.898438 115.15625 20.121094 114.382812 C 19.347656 113.605469 18.589844 112.8125 17.855469 112 C 17.117188 111.1875 16.402344 110.359375 15.707031 109.511719 C 15.011719 108.664062 14.335938 107.796875 13.683594 106.917969 C 13.027344 106.035156 12.398438 105.140625 11.789062 104.230469 C 11.179688 103.316406 10.59375 102.390625 10.027344 101.449219 C 9.464844 100.511719 8.925781 99.554688 8.40625 98.589844 C 7.890625 97.621094 7.398438 96.644531 6.929688 95.652344 C 6.460938 94.660156 6.015625 93.65625 5.597656 92.644531 C 5.175781 91.632812 4.78125 90.609375 4.414062 89.578125 C 4.042969 88.542969 3.699219 87.503906 3.382812 86.453125 C 3.0625 85.40625 2.769531 84.347656 2.503906 83.285156 C 2.238281 82.21875 1.996094 81.152344 1.785156 80.074219 C 1.570312 79 1.382812 77.917969 1.222656 76.835938 C 1.0625 75.75 0.925781 74.664062 0.820312 73.570312 C 0.710938 72.480469 0.628906 71.386719 0.578125 70.292969 C 0.523438 69.195312 0.496094 68.101562 0.496094 67.003906 C 0.496094 65.90625 0.523438 64.8125 0.578125 63.714844 C 0.628906 62.621094 0.710938 61.527344 0.820312 60.4375 C 0.925781 59.34375 1.0625 58.257812 1.222656 57.171875 C 1.382812 56.085938 1.570312 55.007812 1.785156 53.933594 C 1.996094 52.855469 2.238281 51.785156 2.503906 50.722656 C 2.769531 49.660156 3.0625 48.601562 3.382812 47.554688 C 3.699219 46.503906 4.042969 45.464844 4.414062 44.429688 C 4.78125 43.398438 5.175781 42.375 5.597656 41.363281 C 6.015625 40.347656 6.460938 39.347656 6.929688 38.355469 C 7.398438 37.363281 7.890625 36.386719 8.40625 35.417969 C 8.925781 34.453125 9.464844 33.496094 10.027344 32.558594 C 10.59375 31.617188 11.179688 30.691406 11.789062 29.777344 C 12.398438 28.867188 13.027344 27.96875 13.683594 27.089844 C 14.335938 26.207031 15.011719 25.34375 15.707031 24.496094 C 16.402344 23.648438 17.117188 22.820312 17.855469 22.007812 C 18.589844 21.195312 19.347656 20.398438 20.121094 19.625 C 20.898438 18.847656 21.691406 18.09375 22.503906 17.355469 C 23.316406 16.621094 24.144531 15.90625 24.992188 15.210938 C 25.839844 14.511719 26.707031 13.839844 27.585938 13.1875 C 28.464844 12.53125 29.363281 11.902344 30.273438 11.292969 C 31.1875 10.683594 32.113281 10.097656 33.054688 9.53125 C 33.992188 8.96875 34.949219 8.429688 35.914062 7.910156 C 36.882812 7.394531 37.859375 6.902344 38.851562 6.433594 C 39.84375 5.964844 40.84375 5.519531 41.859375 5.101562 C 42.871094 4.679688 43.894531 4.285156 44.925781 3.917969 C 45.960938 3.546875 47 3.203125 48.050781 2.886719 C 49.097656 2.566406 50.15625 2.273438 51.21875 2.007812 C 52.28125 1.742188 53.351562 1.5 54.429688 1.289062 C 55.503906 1.074219 56.582031 0.886719 57.667969 0.726562 C 58.753906 0.5625 59.839844 0.429688 60.933594 0.324219 C 62.023438 0.214844 63.117188 0.132812 64.210938 0.0820312 C 65.308594 0.0273438 66.402344 0 67.5 0 C 68.597656 0 69.691406 0.0273438 70.789062 0.0820312 C 71.882812 0.132812 72.976562 0.214844 74.066406 0.324219 C 75.160156 0.429688 76.246094 0.5625 77.332031 0.726562 C 78.417969 0.886719 79.496094 1.074219 80.570312 1.289062 C 81.648438 1.5 82.71875 1.742188 83.78125 2.007812 C 84.84375 2.273438 85.902344 2.566406 86.949219 2.886719 C 88 3.203125 89.039062 3.546875 90.074219 3.917969 C 91.105469 4.285156 92.128906 4.679688 93.140625 5.101562 C 94.152344 5.519531 95.15625 5.964844 96.148438 6.433594 C 97.140625 6.902344 98.117188 7.394531 99.085938 7.910156 C 100.050781 8.429688 101.007812 8.96875 101.945312 9.53125 C 102.886719 10.097656 103.8125 10.683594 104.726562 11.292969 C 105.636719 11.902344 106.535156 12.53125 107.414062 13.1875 C 108.292969 13.839844 109.160156 14.511719 110.007812 15.210938 C 110.855469 15.90625 111.683594 16.621094 112.496094 17.355469 C 113.308594 18.09375 114.101562 18.847656 114.878906 19.625 C 115.652344 20.398438 116.410156 21.195312 117.144531 22.007812 C 117.882812 22.820312 118.597656 23.648438 119.292969 24.496094 C 119.988281 25.34375 120.664062 26.207031 121.316406 27.089844 C 121.972656 27.96875 122.601562 28.867188 123.210938 29.777344 C 123.820312 30.691406 124.40625 31.617188 124.972656 32.558594 C 125.535156 33.496094 126.074219 34.453125 126.59375 35.417969 C 127.109375 36.386719 127.601562 37.363281 128.070312 38.355469 C 128.539062 39.347656 128.984375 40.347656 129.402344 41.363281 C 129.824219 42.375 130.21875 43.398438 130.585938 44.429688 C 130.957031 45.464844 131.300781 46.503906 131.617188 47.554688 C 131.9375 48.601562 132.230469 49.660156 132.496094 50.722656 C 132.761719 51.785156 133.003906 52.855469 133.214844 53.933594 C 133.429688 55.007812 133.617188 56.085938 133.777344 57.171875 C 133.9375 58.257812 134.074219 59.34375 134.179688 60.4375 C 134.289062 61.527344 134.371094 62.621094 134.421875 63.714844 C 134.476562 64.8125 134.503906 65.90625 134.503906 67.003906 Z M 134.503906 67.003906 "/></g><path style=" stroke:none;fill-rule:nonzero;fill:#ffca28;fill-opacity:1;" d="M 130.621094 67.003906 C 130.621094 68.035156 130.59375 69.070312 130.542969 70.101562 C 130.492188 71.132812 130.417969 72.164062 130.316406 73.191406 C 130.214844 74.21875 130.085938 75.242188 129.9375 76.265625 C 129.785156 77.285156 129.609375 78.304688 129.40625 79.316406 C 129.203125 80.332031 128.980469 81.339844 128.726562 82.339844 C 128.476562 83.34375 128.203125 84.335938 127.902344 85.328125 C 127.601562 86.316406 127.277344 87.296875 126.929688 88.269531 C 126.582031 89.242188 126.210938 90.203125 125.816406 91.160156 C 125.417969 92.113281 125 93.058594 124.558594 93.992188 C 124.117188 94.925781 123.652344 95.847656 123.167969 96.757812 C 122.679688 97.667969 122.171875 98.566406 121.640625 99.453125 C 121.109375 100.339844 120.554688 101.210938 119.980469 102.070312 C 119.40625 102.929688 118.8125 103.773438 118.199219 104.605469 C 117.582031 105.433594 116.945312 106.246094 116.292969 107.046875 C 115.636719 107.84375 114.960938 108.625 114.269531 109.390625 C 113.574219 110.15625 112.863281 110.90625 112.132812 111.636719 C 111.402344 112.367188 110.652344 113.078125 109.886719 113.773438 C 109.121094 114.464844 108.339844 115.140625 107.542969 115.796875 C 106.742188 116.449219 105.929688 117.085938 105.101562 117.703125 C 104.269531 118.316406 103.425781 118.910156 102.566406 119.484375 C 101.707031 120.058594 100.835938 120.613281 99.949219 121.144531 C 99.0625 121.675781 98.164062 122.183594 97.253906 122.671875 C 96.34375 123.15625 95.421875 123.621094 94.488281 124.0625 C 93.554688 124.503906 92.609375 124.921875 91.65625 125.320312 C 90.699219 125.714844 89.738281 126.085938 88.765625 126.433594 C 87.792969 126.78125 86.8125 127.105469 85.824219 127.40625 C 84.835938 127.703125 83.839844 127.980469 82.835938 128.230469 C 81.835938 128.484375 80.828125 128.707031 79.8125 128.910156 C 78.800781 129.113281 77.785156 129.289062 76.761719 129.441406 C 75.738281 129.589844 74.714844 129.71875 73.6875 129.820312 C 72.660156 129.921875 71.628906 129.996094 70.597656 130.046875 C 69.566406 130.097656 68.53125 130.125 67.5 130.125 C 66.46875 130.125 65.433594 130.097656 64.402344 130.046875 C 63.371094 129.996094 62.339844 129.921875 61.3125 129.820312 C 60.285156 129.71875 59.261719 129.589844 58.238281 129.441406 C 57.214844 129.289062 56.199219 129.113281 55.1875 128.910156 C 54.171875 128.707031 53.164062 128.484375 52.164062 128.230469 C 51.160156 127.980469 50.164062 127.703125 49.175781 127.40625 C 48.1875 127.105469 47.207031 126.78125 46.234375 126.433594 C 45.261719 126.085938 44.300781 125.714844 43.34375 125.320312 C 42.390625 124.921875 41.445312 124.503906 40.511719 124.0625 C 39.578125 123.621094 38.65625 123.15625 37.746094 122.671875 C 36.835938 122.183594 35.9375 121.675781 35.050781 121.144531 C 34.164062 120.613281 33.292969 120.058594 32.433594 119.484375 C 31.574219 118.910156 30.730469 118.316406 29.898438 117.703125 C 29.070312 117.085938 28.257812 116.449219 27.457031 115.796875 C 26.660156 115.140625 25.878906 114.464844 25.113281 113.773438 C 24.347656 113.078125 23.597656 112.367188 22.867188 111.636719 C 22.136719 110.90625 21.425781 110.15625 20.730469 109.390625 C 20.039062 108.625 19.363281 107.84375 18.707031 107.046875 C 18.050781 106.246094 17.417969 105.433594 16.800781 104.605469 C 16.1875 103.773438 15.59375 102.929688 15.019531 102.070312 C 14.445312 101.210938 13.890625 100.339844 13.359375 99.453125 C 12.828125 98.566406 12.320312 97.667969 11.832031 96.757812 C 11.347656 95.847656 10.882812 94.925781 10.441406 93.992188 C 10 93.058594 9.582031 92.113281 9.183594 91.160156 C 8.789062 90.203125 8.417969 89.242188 8.070312 88.269531 C 7.722656 87.296875 7.398438 86.316406 7.097656 85.328125 C 6.796875 84.335938 6.523438 83.34375 6.273438 82.339844 C 6.019531 81.339844 5.796875 80.332031 5.59375 79.316406 C 5.390625 78.304688 5.214844 77.285156 5.0625 76.265625 C 4.914062 75.242188 4.785156 74.21875 4.683594 73.191406 C 4.582031 72.164062 4.507812 71.132812 4.457031 70.101562 C 4.40625 69.070312 4.378906 68.035156 4.378906 67.003906 C 4.378906 65.96875 4.40625 64.9375 4.457031 63.90625 C 4.507812 62.875 4.582031 61.84375 4.683594 60.816406 C 4.785156 59.789062 4.914062 58.765625 5.0625 57.742188 C 5.214844 56.71875 5.390625 55.703125 5.59375 54.691406 C 5.796875 53.675781 6.019531 52.667969 6.273438 51.667969 C 6.523438 50.664062 6.796875 49.667969 7.097656 48.679688 C 7.398438 47.691406 7.722656 46.710938 8.070312 45.738281 C 8.417969 44.765625 8.789062 43.804688 9.183594 42.847656 C 9.582031 41.894531 10 40.949219 10.441406 40.015625 C 10.882812 39.082031 11.347656 38.160156 11.832031 37.25 C 12.320312 36.339844 12.828125 35.441406 13.359375 34.554688 C 13.890625 33.667969 14.445312 32.796875 15.019531 31.9375 C 15.59375 31.078125 16.1875 30.234375 16.800781 29.402344 C 17.417969 28.574219 18.050781 27.757812 18.707031 26.960938 C 19.363281 26.164062 20.039062 25.378906 20.730469 24.617188 C 21.425781 23.851562 22.136719 23.101562 22.867188 22.371094 C 23.597656 21.640625 24.347656 20.929688 25.113281 20.234375 C 25.878906 19.542969 26.660156 18.867188 27.457031 18.210938 C 28.257812 17.554688 29.070312 16.921875 29.898438 16.304688 C 30.730469 15.691406 31.574219 15.097656 32.433594 14.523438 C 33.292969 13.949219 34.164062 13.394531 35.050781 12.863281 C 35.9375 12.332031 36.835938 11.824219 37.746094 11.335938 C 38.65625 10.851562 39.578125 10.386719 40.511719 9.945312 C 41.445312 9.503906 42.390625 9.085938 43.34375 8.6875 C 44.300781 8.292969 45.261719 7.921875 46.234375 7.574219 C 47.207031 7.226562 48.1875 6.902344 49.175781 6.601562 C 50.164062 6.300781 51.160156 6.027344 52.164062 5.777344 C 53.164062 5.523438 54.171875 5.296875 55.1875 5.097656 C 56.199219 4.894531 57.214844 4.71875 58.238281 4.566406 C 59.261719 4.414062 60.285156 4.289062 61.3125 4.1875 C 62.339844 4.085938 63.371094 4.011719 64.402344 3.960938 C 65.433594 3.910156 66.46875 3.882812 67.5 3.882812 C 68.53125 3.882812 69.566406 3.910156 70.597656 3.960938 C 71.628906 4.011719 72.660156 4.085938 73.6875 4.1875 C 74.714844 4.289062 75.738281 4.414062 76.761719 4.566406 C 77.785156 4.71875 78.800781 4.894531 79.8125 5.097656 C 80.828125 5.296875 81.835938 5.523438 82.835938 5.777344 C 83.839844 6.027344 84.835938 6.300781 85.824219 6.601562 C 86.8125 6.902344 87.792969 7.226562 88.765625 7.574219 C 89.738281 7.921875 90.699219 8.292969 91.65625 8.6875 C 92.609375 9.085938 93.554688 9.503906 94.488281 9.945312 C 95.421875 10.386719 96.34375 10.851562 97.253906 11.335938 C 98.164062 11.824219 99.0625 12.332031 99.949219 12.863281 C 100.835938 13.394531 101.707031 13.949219 102.566406 14.523438 C 103.425781 15.097656 104.269531 15.691406 105.101562 16.304688 C 105.929688 16.921875 106.742188 17.554688 107.542969 18.210938 C 108.339844 18.867188 109.121094 19.542969 109.886719 20.234375 C 110.652344 20.929688 111.402344 21.640625 112.132812 22.371094 C 112.863281 23.101562 113.574219 23.851562 114.269531 24.617188 C 114.960938 25.378906 115.636719 26.164062 116.292969 26.960938 C 116.949219 27.757812 117.582031 28.574219 118.199219 29.402344 C 118.8125 30.234375 119.40625 31.078125 119.980469 31.9375 C 120.554688 32.796875 121.109375 33.667969 121.640625 34.554688 C 122.171875 35.441406 122.679688 36.339844 123.167969 37.25 C 123.652344 38.160156 124.117188 39.082031 124.558594 40.015625 C 125 40.949219 125.417969 41.894531 125.816406 42.847656 C 126.210938 43.804688 126.582031 44.765625 126.929688 45.738281 C 127.277344 46.710938 127.601562 47.691406 127.902344 48.679688 C 128.203125 49.667969 128.476562 50.664062 128.726562 51.667969 C 128.980469 52.667969 129.203125 53.675781 129.40625 54.691406 C 129.609375 55.703125 129.785156 56.71875 129.9375 57.742188 C 130.085938 58.765625 130.214844 59.789062 130.316406 60.816406 C 130.417969 61.84375 130.492188 62.875 130.542969 63.90625 C 130.59375 64.9375 130.621094 65.96875 130.621094 67.003906 Z M 130.621094 67.003906 "/><path style=" stroke:none;fill-rule:nonzero;fill:#ffa92c;fill-opacity:1;" d="M 120.910156 67.003906 C 120.910156 68.753906 120.824219 70.496094 120.652344 72.238281 C 120.480469 73.980469 120.222656 75.707031 119.882812 77.421875 C 119.542969 79.140625 119.117188 80.832031 118.609375 82.507812 C 118.101562 84.179688 117.511719 85.828125 116.84375 87.441406 C 116.175781 89.058594 115.425781 90.636719 114.601562 92.179688 C 113.777344 93.722656 112.878906 95.222656 111.90625 96.675781 C 110.9375 98.128906 109.894531 99.535156 108.785156 100.886719 C 107.675781 102.238281 106.503906 103.53125 105.265625 104.769531 C 104.027344 106.007812 102.734375 107.179688 101.382812 108.289062 C 100.03125 109.398438 98.625 110.441406 97.171875 111.410156 C 95.71875 112.382812 94.21875 113.28125 92.675781 114.105469 C 91.132812 114.929688 89.554688 115.675781 87.9375 116.347656 C 86.324219 117.015625 84.675781 117.605469 83.003906 118.113281 C 81.328125 118.621094 79.636719 119.042969 77.917969 119.386719 C 76.203125 119.726562 74.476562 119.984375 72.734375 120.15625 C 70.996094 120.328125 69.25 120.414062 67.5 120.414062 C 65.75 120.414062 64.003906 120.328125 62.265625 120.15625 C 60.523438 119.984375 58.796875 119.726562 57.082031 119.386719 C 55.363281 119.042969 53.671875 118.621094 51.996094 118.113281 C 50.324219 117.605469 48.675781 117.015625 47.0625 116.347656 C 45.445312 115.675781 43.867188 114.929688 42.324219 114.105469 C 40.78125 113.28125 39.28125 112.382812 37.828125 111.410156 C 36.375 110.441406 34.96875 109.398438 33.617188 108.289062 C 32.265625 107.179688 30.972656 106.007812 29.734375 104.769531 C 28.496094 103.53125 27.324219 102.238281 26.214844 100.886719 C 25.105469 99.535156 24.0625 98.128906 23.09375 96.675781 C 22.121094 95.222656 21.222656 93.722656 20.398438 92.179688 C 19.574219 90.636719 18.824219 89.058594 18.15625 87.441406 C 17.488281 85.828125 16.898438 84.179688 16.390625 82.507812 C 15.882812 80.832031 15.457031 79.140625 15.117188 77.421875 C 14.777344 75.707031 14.519531 73.980469 14.347656 72.238281 C 14.175781 70.496094 14.089844 68.753906 14.089844 67.003906 C 14.089844 65.253906 14.175781 63.507812 14.347656 61.769531 C 14.519531 60.027344 14.777344 58.300781 15.117188 56.585938 C 15.457031 54.867188 15.882812 53.171875 16.390625 51.5 C 16.898438 49.824219 17.488281 48.179688 18.15625 46.566406 C 18.824219 44.949219 19.574219 43.371094 20.398438 41.828125 C 21.222656 40.285156 22.121094 38.785156 23.09375 37.332031 C 24.0625 35.878906 25.105469 34.472656 26.214844 33.121094 C 27.324219 31.769531 28.496094 30.476562 29.734375 29.238281 C 30.972656 28 32.265625 26.828125 33.617188 25.71875 C 34.96875 24.609375 36.375 23.566406 37.828125 22.597656 C 39.28125 21.625 40.78125 20.726562 42.324219 19.902344 C 43.867188 19.078125 45.445312 18.328125 47.0625 17.660156 C 48.675781 16.992188 50.324219 16.402344 51.996094 15.894531 C 53.671875 15.386719 55.363281 14.960938 57.082031 14.621094 C 58.796875 14.28125 60.523438 14.023438 62.265625 13.851562 C 64.003906 13.679688 65.75 13.59375 67.5 13.59375 C 69.25 13.59375 70.996094 13.679688 72.734375 13.851562 C 74.476562 14.023438 76.203125 14.28125 77.917969 14.621094 C 79.636719 14.960938 81.328125 15.386719 83.003906 15.894531 C 84.675781 16.402344 86.324219 16.992188 87.9375 17.660156 C 89.554688 18.328125 91.132812 19.078125 92.675781 19.902344 C 94.21875 20.726562 95.71875 21.625 97.171875 22.597656 C 98.625 23.566406 100.03125 24.609375 101.382812 25.71875 C 102.734375 26.828125 104.027344 28 105.265625 29.238281 C 106.503906 30.476562 107.675781 31.769531 108.785156 33.121094 C 109.894531 34.472656 110.9375 35.878906 111.90625 37.332031 C 112.878906 38.785156 113.777344 40.285156 114.601562 41.828125 C 115.425781 43.371094 116.175781 44.949219 116.84375 46.566406 C 117.511719 48.179688 118.101562 49.824219 118.609375 51.5 C 119.117188 53.171875 119.542969 54.867188 119.882812 56.585938 C 120.222656 58.300781 120.480469 60.027344 120.652344 61.769531 C 120.824219 63.507812 120.910156 65.253906 120.910156 67.003906 Z M 120.910156 67.003906 "/><g clip-rule="nonzero" clip-path="url(#361adca4bf)"><g clip-rule="nonzero" clip-path="url(#69262c25c5)"><path style=" stroke:none;fill-rule:nonzero;fill:#0e91a8;fill-opacity:1;" d="M 59.535156 32.511719 L 74.917969 32.511719 L 74.917969 47.890625 L 59.535156 47.890625 Z M 59.535156 32.511719 "/></g></g><g clip-rule="nonzero" clip-path="url(#36e321f55e)"><path style=" stroke:none;fill-rule:nonzero;fill:#1dbf3c;fill-opacity:1;" d="M 81.414062 68.921875 C 77.84375 72.195312 76.269531 76.742188 75.613281 79.4375 C 79.503906 74.835938 84.378906 70.335938 89.648438 67.308594 C 89.855469 67.191406 81.542969 76.550781 78.449219 80.804688 C 81.375 80.171875 85.097656 78.882812 88.050781 76.164062 C 92.601562 71.988281 93.941406 65.683594 94.238281 63.816406 C 92.367188 63.96875 85.949219 64.757812 81.414062 68.921875 Z M 81.414062 68.921875 "/></g><path style=" stroke:none;fill-rule:nonzero;fill:#ffa92c;fill-opacity:1;" d="M 67.351562 49.703125 C 72.429688 49.703125 76.554688 45.578125 76.554688 40.511719 C 76.554688 35.433594 72.429688 31.3125 67.351562 31.3125 C 62.285156 31.3125 58.160156 35.433594 58.160156 40.511719 C 58.160156 45.578125 62.285156 49.703125 67.351562 49.703125 Z M 69.335938 41.632812 C 69.039062 41.429688 68.589844 41.246094 67.96875 41.105469 C 67.933594 41.082031 67.894531 41.082031 67.855469 41.066406 L 66.71875 40.796875 L 66.628906 40.769531 C 65.832031 40.589844 65.277344 40.382812 64.941406 40.152344 C 64.386719 39.777344 64.117188 39.199219 64.117188 38.4375 C 64.117188 37.601562 64.386719 36.917969 64.941406 36.390625 C 65.378906 35.949219 65.984375 35.679688 66.746094 35.617188 L 66.757812 34.160156 L 68.007812 34.222656 L 67.996094 35.640625 C 68.628906 35.71875 69.183594 35.949219 69.660156 36.285156 C 70.304688 36.75 70.636719 37.511719 70.636719 38.542969 L 69.542969 38.476562 C 69.542969 38.011719 69.414062 37.613281 69.207031 37.328125 C 68.9375 36.980469 68.523438 36.75 67.996094 36.648438 C 67.765625 36.59375 67.519531 36.570312 67.25 36.570312 C 67.066406 36.570312 66.902344 36.582031 66.746094 36.59375 C 66.257812 36.660156 65.894531 36.8125 65.636719 37.058594 C 65.316406 37.394531 65.148438 37.78125 65.148438 38.21875 C 65.148438 38.707031 65.339844 39.070312 65.742188 39.289062 C 65.921875 39.390625 66.242188 39.507812 66.734375 39.636719 C 66.925781 39.703125 67.160156 39.753906 67.402344 39.816406 L 67.984375 39.945312 L 68.667969 40.113281 C 69.273438 40.269531 69.734375 40.460938 70.058594 40.707031 C 70.613281 41.132812 70.894531 41.761719 70.894531 42.589844 C 70.894531 43.605469 70.535156 44.355469 69.839844 44.78125 C 69.285156 45.128906 68.652344 45.332031 67.957031 45.410156 L 67.945312 46.789062 L 66.695312 46.789062 L 66.707031 45.410156 C 65.882812 45.320312 65.226562 45.039062 64.722656 44.574219 C 64.105469 43.980469 63.792969 43.179688 63.808594 42.175781 L 64.902344 42.242188 C 64.863281 42.730469 64.992188 43.179688 65.210938 43.527344 C 65.519531 44.019531 66.023438 44.316406 66.707031 44.429688 C 66.925781 44.46875 67.160156 44.496094 67.417969 44.496094 C 67.609375 44.496094 67.789062 44.484375 67.957031 44.457031 C 68.214844 44.429688 68.460938 44.378906 68.691406 44.289062 C 69.453125 44.007812 69.828125 43.503906 69.828125 42.792969 C 69.828125 42.253906 69.671875 41.867188 69.335938 41.632812 Z M 69.335938 41.632812 "/><path style=" stroke:none;fill-rule:nonzero;fill:#1dbf3c;fill-opacity:1;" d="M 73.679688 63.855469 C 76.992188 60.144531 80.960938 56.519531 85.097656 54.136719 C 85.304688 54.019531 78.152344 62.128906 75.367188 65.738281 C 77.765625 65.285156 81.324219 64.214844 84.082031 61.675781 C 87.894531 58.171875 89.070312 52.886719 89.351562 51.210938 C 87.652344 51.339844 82.277344 52.046875 78.460938 55.566406 C 75.679688 58.117188 74.324219 61.535156 73.679688 63.855469 Z M 73.679688 63.855469 "/><g clip-rule="nonzero" clip-path="url(#8a962128e0)"><path style=" stroke:none;fill-rule:nonzero;fill:#b87407;fill-opacity:1;" d="M 67.351562 52.359375 C 73.886719 52.359375 79.210938 47.046875 79.210938 40.511719 C 79.210938 33.980469 73.886719 28.65625 67.351562 28.65625 C 60.816406 28.65625 55.507812 33.980469 55.507812 40.511719 C 55.507812 47.046875 60.816406 52.359375 67.351562 52.359375 Z M 67.351562 30.410156 C 72.917969 30.410156 77.457031 34.945312 77.457031 40.511719 C 77.457031 46.082031 72.917969 50.605469 67.351562 50.605469 C 61.785156 50.605469 57.257812 46.082031 57.257812 40.511719 C 57.257812 34.945312 61.785156 30.410156 67.351562 30.410156 Z M 67.351562 30.410156 "/></g><path style=" stroke:none;fill-rule:nonzero;fill:#1dbf3c;fill-opacity:1;" d="M 50.90625 61.675781 C 53.664062 64.214844 57.222656 65.285156 59.617188 65.738281 C 56.835938 62.128906 49.679688 54.019531 49.886719 54.136719 C 54.023438 56.519531 57.996094 60.144531 61.308594 63.855469 C 60.664062 61.535156 59.308594 58.117188 56.523438 55.566406 C 52.710938 52.046875 47.335938 51.339844 45.632812 51.210938 C 45.917969 52.886719 47.089844 58.171875 50.90625 61.675781 Z M 50.90625 61.675781 "/><g clip-rule="nonzero" clip-path="url(#6771fab8d6)"><path style=" stroke:none;fill-rule:nonzero;fill:#b87407;fill-opacity:1;" d="M 69.464844 89.953125 C 69.453125 89.980469 69.441406 89.992188 69.414062 90.019531 C 69.476562 91.550781 69.515625 92.507812 69.515625 92.53125 C 69.53125 92.777344 69.335938 92.984375 69.078125 92.996094 L 69.066406 92.996094 C 68.820312 92.996094 68.628906 92.816406 68.613281 92.570312 C 68.613281 92.492188 68.292969 85.171875 68.203125 77.917969 C 68.1875 76.628906 68.472656 75.3125 69.039062 74.128906 C 71.515625 68.945312 75.40625 63.660156 80.640625 58.351562 C 75.910156 62.230469 71.746094 67.246094 69.015625 71.316406 C 69.027344 71.484375 69.027344 71.664062 69.027344 71.832031 C 69.027344 72.078125 68.832031 72.285156 68.574219 72.285156 C 68.332031 72.285156 68.125 72.089844 68.125 71.84375 C 68.046875 66.289062 67.789062 59.058594 67.558594 53.246094 C 67.519531 53.246094 67.46875 53.261719 67.429688 53.261719 C 67.195312 59.035156 66.9375 66.253906 66.863281 71.84375 C 66.863281 72.089844 66.65625 72.285156 66.410156 72.285156 L 66.398438 72.285156 C 66.152344 72.285156 65.960938 72.078125 65.960938 71.832031 C 65.960938 71.664062 65.960938 71.484375 65.972656 71.316406 C 63.253906 67.246094 59.078125 62.230469 54.347656 58.351562 C 59.578125 63.660156 63.472656 68.945312 65.945312 74.128906 C 66.515625 75.3125 66.796875 76.628906 66.785156 77.917969 C 66.695312 85.171875 66.371094 92.492188 66.371094 92.570312 C 66.359375 92.816406 66.164062 92.996094 65.921875 92.996094 L 65.90625 92.996094 C 65.648438 92.984375 65.457031 92.777344 65.46875 92.53125 C 65.46875 92.507812 65.535156 89.980469 65.519531 89.953125 C 62.570312 84.246094 56.523438 76.5 49.292969 71.035156 C 52.671875 74.398438 55.546875 77.789062 57.902344 81.175781 C 57.929688 81.191406 57.941406 81.214844 57.957031 81.242188 C 63.792969 89.605469 66.449219 97.855469 65.574219 105.34375 L 69.414062 105.34375 C 68.539062 97.855469 71.191406 89.605469 77.03125 81.242188 C 77.042969 81.214844 77.058594 81.191406 77.082031 81.175781 C 79.441406 77.789062 82.316406 74.398438 85.691406 71.035156 C 78.460938 76.5 72.417969 84.246094 69.464844 89.953125 Z M 69.464844 89.953125 "/></g><g clip-rule="nonzero" clip-path="url(#9d15e9da88)"><path style=" stroke:none;fill-rule:nonzero;fill:#1dbf3c;fill-opacity:1;" d="M 59.375 79.4375 C 58.714844 76.742188 57.144531 72.195312 53.574219 68.921875 C 49.023438 64.742188 42.617188 63.96875 40.75 63.816406 C 41.046875 65.671875 42.386719 71.988281 46.9375 76.164062 C 49.886719 78.882812 53.613281 80.171875 56.539062 80.804688 C 53.445312 76.550781 45.132812 67.191406 45.335938 67.308594 C 50.609375 70.335938 55.480469 74.835938 59.375 79.4375 Z M 59.375 79.4375 "/></g></g></svg>